# xmcd CD database file
#
# Track frame offsets:
#	150
#	15937
#	32147
#	44747
#	57887
#	71867
#	85555
#	100260
#	114077
#	133260
#	147530
#	164117
#	180627
#	194687
#	214975
#	229265
#
# Disc length: 3247 seconds
#
# Revision: 0
# Processed by: cddbd v1.5.1PL2 Copyright (c) Steve Scherf et al.
# Submitted via: CDex 1.51
#
DISCID=f00cad10
DTITLE=ダンス音楽 - キューバン・ルンバ
DYEAR=1900
DGENRE=Vocal
TTITLE0=シボネー
TTITLE1=ラ・パロマ
TTITLE2=キャリオカ
TTITLE3=ウィズアウト・ユー
TTITLE4=シャレード
TTITLE5=グァンタナメラ
TTITLE6=パーフィディア
TTITLE7=踊り明かそう
TTITLE8=ロシアより愛をこめて
TTITLE9=ベベルー
TTITLE10=ベサメムーチョ
TTITLE11=タブー
TTITLE12=スタンド・バイ・ミー
TTITLE13=コンドルは飛んで行く
TTITLE14=ストレンジャー・イン・パラダイス
TTITLE15=フレネシ
EXTD=
EXTT0=
EXTT1=
EXTT2=
EXTT3=
EXTT4=
EXTT5=
EXTT6=
EXTT7=
EXTT8=
EXTT9=
EXTT10=
EXTT11=
EXTT12=
EXTT13=
EXTT14=
EXTT15=
PLAYORDER=
